HIERARCHY
ROOT mixamorig:Hips
{
  OFFSET 0.000000 0.000000 0.000000
  CHANNELS 6 Xposition Yposition Zposition Zrotation Xrotation Yrotation
  JOINT mixamorig:Spine
  {
    OFFSET 0.000000 9.878500 1.258800
    CHANNELS 3 Zrotation Xrotation Yrotation
    JOINT mixamorig:Spine1
    {
      OFFSET 0.000000 11.272100 0.038100
      CHANNELS 3 Zrotation Xrotation Yrotation
      JOINT mixamorig:Spine2
      {
        OFFSET 0.000000 10.749001 -0.597600
        CHANNELS 3 Zrotation Xrotation Yrotation
        JOINT mixamorig:Neck
        {
          OFFSET 0.000000 12.015200 -1.691700
          CHANNELS 3 Zrotation Xrotation Yrotation
          JOINT mixamorig:Head
          {
            OFFSET 0.000000 8.810500 2.213900
            CHANNELS 3 Zrotation Xrotation Yrotation
            End Site
            {
              OFFSET 0.000000 18.232300 3.738000
            }
          }
        }
        JOINT mixamorig:LeftShoulder
        {
          OFFSET 6.002800 8.887900 -2.628900
          CHANNELS 3 Zrotation Xrotation Yrotation
          JOINT mixamorig:LeftArm
          {
            OFFSET 12.046300 0.000000 0.000000
            CHANNELS 3 Zrotation Xrotation Yrotation
            JOINT mixamorig:LeftForeArm
            {
              OFFSET 27.876501 0.000000 0.000000
              CHANNELS 3 Zrotation Xrotation Yrotation
              JOINT mixamorig:LeftHand
              {
                OFFSET 25.438500 0.000000 0.000000
                CHANNELS 3 Zrotation Xrotation Yrotation
                End Site
                {
                  OFFSET 10.0 0.0 0.0
                }
              }
            }
          }
        }
        JOINT mixamorig:RightShoulder
        {
          OFFSET -6.002800 8.887900 -2.628900
          CHANNELS 3 Zrotation Xrotation Yrotation
          JOINT mixamorig:RightArm
          {
            OFFSET -12.046300 0.000000 0.000000
            CHANNELS 3 Zrotation Xrotation Yrotation
            JOINT mixamorig:RightForeArm
            {
              OFFSET -27.876501 0.000000 0.000000
              CHANNELS 3 Zrotation Xrotation Yrotation
              JOINT mixamorig:RightHand
              {
                OFFSET -25.438500 0.000000 0.000000
                CHANNELS 3 Zrotation Xrotation Yrotation
                End Site
                {
                  OFFSET -10.0 0.0 0.0
                }
              }
            }
          }
        }
      }
    }
  }
}
MOTION
Frames: 23
Frame Time: 0.033333
49.5096 -105.5926 -0.0212 0.0000 0.0000 0.0000 0.0521 -25.3723 -0.0117 0.0000 0.0000 0.0000 0.0000 0.0000 0.0000 0.0000 0.0000 0.0000 0.0000 0.0000 0.0000 0.0000 0.0000 0.0000 -83.0414 -2.4474 -2.7642 -69.9404 26.8035 37.6234 0.0000 0.0000 0.0000 0.0000 0.0000 0.0000 84.7357 -5.1597 5.6562 78.4968 28.9045 -35.0171 0.0000 0.0000 0.0000
49.5380 -106.4231 -0.0217 0.0000 0.0000 0.0000 0.0736 -23.8363 -0.0155 0.0000 0.0000 0.0000 0.0000 0.0000 0.0000 0.0000 0.0000 0.0000 0.0000 0.0000 0.0000 0.0000 0.0000 0.0000 -82.1568 -7.1417 -8.1896 -76.7182 23.2043 29.0858 0.0000 0.0000 0.0000 0.0000 0.0000 0.0000 84.3925 -6.4133 7.0723 80.5558 25.0476 -29.3772 0.0000 0.0000 0.0000
49.6091 -106.5227 -0.0240 0.0000 0.0000 0.0000 0.1530 -23.5986 -0.0320 0.0000 0.0000 0.0000 0.0000 0.0000 0.0000 0.0000 0.0000 0.0000 0.0000 0.0000 0.0000 0.0000 0.0000 0.0000 -81.7934 -8.7692 -10.1181 -80.0122 20.3844 24.1819 0.0000 0.0000 0.0000 0.0000 0.0000 0.0000 84.9045 -3.5192 3.8467 85.5282 20.6453 -22.2825 0.0000 0.0000 0.0000
49.6059 -106.5279 -0.0278 0.0000 0.0000 0.0000 0.1628 -24.3783 -0.0352 0.0000 0.0000 0.0000 0.0000 0.0000 0.0000 0.0000 0.0000 0.0000 0.0000 0.0000 0.0000 0.0000 0.0000 0.0000 -82.4222 -7.3201 -8.3549 -77.6669 22.3074 27.5253 0.0000 0.0000 0.0000 0.0000 0.0000 0.0000 84.4996 -5.4948 6.0484 85.3619 20.2298 -21.8977 0.0000 0.0000 0.0000
49.6358 -106.8197 -0.0270 0.0000 0.0000 0.0000 0.2288 -24.3799 -0.0494 0.0000 0.0000 0.0000 0.0000 0.0000 0.0000 0.0000 0.0000 0.0000 0.0000 0.0000 0.0000 0.0000 0.0000 0.0000 -81.1585 -10.8553 -12.6607 -80.2622 19.9386 23.5559 0.0000 0.0000 0.0000 0.0000 0.0000 0.0000 84.7863 -4.7019 5.1498 83.7065 22.4260 -24.9576 0.0000 0.0000 0.0000
49.6106 -106.8331 -0.0284 0.0000 0.0000 0.0000 0.2138 -25.5079 -0.0484 0.0000 0.0000 0.0000 0.0000 0.0000 0.0000 0.0000 0.0000 0.0000 0.0000 0.0000 0.0000 0.0000 0.0000 0.0000 -83.1007 -5.0438 -5.6899 -71.3206 25.9736 35.6368 0.0000 0.0000 0.0000 0.0000 0.0000 0.0000 84.6925 -5.1282 5.6260 83.1981 22.2392 -24.9660 0.0000 0.0000 0.0000
49.6137 -106.9270 -0.0293 0.0000 0.0000 0.0000 0.2551 -24.7475 -0.0560 0.0000 0.0000 0.0000 0.0000 0.0000 0.0000 0.0000 0.0000 0.0000 0.0000 0.0000 0.0000 0.0000 0.0000 0.0000 -80.2795 -12.8021 -15.1561 -82.5149 17.3482 19.7318 0.0000 0.0000 0.0000 0.0000 0.0000 0.0000 84.5252 -6.2014 6.8227 83.3264 21.4247 -24.0048 0.0000 0.0000 0.0000
49.6138 -106.9429 -0.0310 0.0000 0.0000 0.0000 0.2715 -24.7358 -0.0595 0.0000 0.0000 0.0000 0.0000 0.0000 0.0000 0.0000 0.0000 0.0000 0.0000 0.0000 0.0000 0.0000 0.0000 0.0000 -80.5154 -12.4432 -14.6718 -81.2076 19.0019 22.0944 0.0000 0.0000 0.0000 0.0000 0.0000 0.0000 84.2900 -7.2084 7.9628 84.4761 20.2690 -22.2747 0.0000 0.0000 0.0000
49.6077 -106.9871 -0.0294 0.0000 0.0000 0.0000 0.2944 -24.9430 -0.0651 0.0000 0.0000 0.0000 0.0000 0.0000 0.0000 0.0000 0.0000 0.0000 0.0000 0.0000 0.0000 0.0000 0.0000 0.0000 -81.3398 -10.9590 -12.7408 -77.2477 22.6025 28.0860 0.0000 0.0000 0.0000 0.0000 0.0000 0.0000 84.0961 -8.1585 9.0422 85.7493 18.7692 -20.1873 0.0000 0.0000 0.0000
49.5514 -107.0047 -0.0294 0.0000 0.0000 0.0000 0.2487 -25.2329 -0.0557 0.0000 0.0000 0.0000 0.0000 0.0000 0.0000 0.0000 0.0000 0.0000 0.0000 0.0000 0.0000 0.0000 0.0000 0.0000 -81.1133 -11.5484 -13.4778 -78.4259 21.9286 26.7130 0.0000 0.0000 0.0000 0.0000 0.0000 0.0000 83.2185 -10.4600 11.7688 86.3878 18.0616 -19.2165 0.0000 0.0000 0.0000
49.5234 -107.0031 -0.0285 0.0000 0.0000 0.0000 0.2619 -23.7513 -0.0551 0.0000 0.0000 0.0000 0.0000 0.0000 0.0000 0.0000 0.0000 0.0000 0.0000 0.0000 0.0000 0.0000 0.0000 0.0000 -78.8498 -15.3424 -18.6087 -86.9388 10.1116 10.6637 0.0000 0.0000 0.0000 0.0000 0.0000 0.0000 83.2791 -10.4320 11.7249 85.8791 17.6919 -18.9892 0.0000 0.0000 0.0000
49.5142 -107.2760 -0.0275 0.0000 0.0000 0.0000 0.2850 -23.4055 -0.0590 0.0000 0.0000 0.0000 0.0000 0.0000 0.0000 0.0000 0.0000 0.0000 0.0000 0.0000 0.0000 0.0000 0.0000 0.0000 -79.9997 -13.6831 -16.2747 -83.2659 16.9335 19.0140 0.0000 0.0000 0.0000 0.0000 0.0000 0.0000 83.3466 -10.1546 11.4002 84.8163 19.2072 -20.9898 0.0000 0.0000 0.0000
49.4707 -107.4867 -0.0273 0.0000 0.0000 0.0000 0.2674 -24.3991 -0.0578 0.0000 0.0000 0.0000 0.0000 0.0000 0.0000 0.0000 0.0000 0.0000 0.0000 0.0000 0.0000 0.0000 0.0000 0.0000 -80.9940 -11.9996 -14.0323 -79.6981 21.0629 25.1146 0.0000 0.0000 0.0000 0.0000 0.0000 0.0000 84.2704 -7.5252 8.3154 84.5325 20.8332 -22.8698 0.0000 0.0000 0.0000
49.4313 -107.4652 -0.0259 0.0000 0.0000 0.0000 0.2434 -24.2047 -0.0522 0.0000 0.0000 0.0000 0.0000 0.0000 0.0000 0.0000 0.0000 0.0000 0.0000 0.0000 0.0000 0.0000 0.0000 0.0000 -81.2536 -11.5850 -13.4872 -80.4926 20.0974 23.6481 0.0000 0.0000 0.0000 0.0000 0.0000 0.0000 82.4382 -11.3970 12.9970 85.4496 19.3298 -20.8954 0.0000 0.0000 0.0000
49.4162 -107.1396 -0.0259 0.0000 0.0000 0.0000 0.2371 -24.1750 -0.0508 0.0000 0.0000 0.0000 0.0000 0.0000 0.0000 0.0000 0.0000 0.0000 0.0000 0.0000 0.0000 0.0000 0.0000 0.0000 -81.5671 -11.1107 -12.8655 -80.0132 20.4013 24.2014 0.0000 0.0000 0.0000 0.0000 0.0000 0.0000 82.5167 -10.3258 11.7613 84.1821 20.5414 -22.6864 0.0000 0.0000 0.0000
49.4640 -107.1508 -0.0253 0.0000 0.0000 0.0000 0.3120 -23.8263 -0.0658 0.0000 0.0000 0.0000 0.0000 0.0000 0.0000 0.0000 0.0000 0.0000 0.0000 0.0000 0.0000 0.0000 0.0000 0.0000 -79.9666 -14.0309 -16.6962 -86.0699 11.9182 12.7584 0.0000 0.0000 0.0000 0.0000 0.0000 0.0000 82.9889 -9.4145 10.6366 84.8048 20.0249 -21.8842 0.0000 0.0000 0.0000
49.4453 -106.7266 -0.0270 0.0000 0.0000 0.0000 0.3204 -23.2790 -0.0660 0.0000 0.0000 0.0000 0.0000 0.0000 0.0000 0.0000 0.0000 0.0000 0.0000 0.0000 0.0000 0.0000 0.0000 0.0000 -81.7743 -11.0148 -12.7086 -82.8774 16.6154 18.7837 0.0000 0.0000 0.0000 0.0000 0.0000 0.0000 81.3241 -12.2736 14.2692 88.4181 16.1943 -16.6415 0.0000 0.0000 0.0000
49.4187 -106.5720 -0.0270 0.0000 0.0000 0.0000 0.3032 -21.4426 -0.0574 0.0000 0.0000 0.0000 0.0000 0.0000 0.0000 0.0000 0.0000 0.0000 0.0000 0.0000 0.0000 0.0000 0.0000 0.0000 -82.8505 -8.3213 -9.4256 -81.8017 17.9331 20.6462 0.0000 0.0000 0.0000 0.0000 0.0000 0.0000 81.4021 -11.1758 12.9782 89.8869 18.5862 -18.6222 0.0000 0.0000 0.0000
49.3241 -106.2792 -0.0277 0.0000 0.0000 0.0000 0.2228 -19.4962 -0.0383 0.0000 0.0000 0.0000 0.0000 0.0000 0.0000 0.0000 0.0000 0.0000 0.0000 0.0000 0.0000 0.0000 0.0000 0.0000 -83.0915 -7.3643 -8.3073 -76.7973 22.3776 28.0268 0.0000 0.0000 0.0000 0.0000 0.0000 0.0000 75.8759 17.4376 -22.2591 24.6549 22.4487 -84.4833 0.0000 0.0000 0.0000
49.3476 -106.1090 -0.0225 0.0000 0.0000 0.0000 0.2715 -18.3864 -0.0439 0.0000 0.0000 0.0000 0.0000 0.0000 0.0000 0.0000 0.0000 0.0000 0.0000 0.0000 0.0000 0.0000 0.0000 0.0000 -83.2609 -6.4091 -7.2090 -74.3372 23.7415 30.9914 0.0000 0.0000 0.0000 0.0000 0.0000 0.0000 67.7706 23.1454 -33.9134 17.3793 17.3739 -89.9819 0.0000 0.0000 0.0000
49.2979 -106.0803 -0.0227 0.0000 0.0000 0.0000 0.3016 -19.0345 -0.0506 0.0000 0.0000 0.0000 0.0000 0.0000 0.0000 0.0000 0.0000 0.0000 0.0000 0.0000 0.0000 0.0000 0.0000 0.0000 -81.7264 -10.3778 -11.9851 -81.3872 16.2797 18.8867 0.0000 0.0000 0.0000 0.0000 0.0000 0.0000 70.5417 21.5125 -30.0688 10.6125 11.5991 -95.1187 0.0000 0.0000 0.0000
49.2898 -105.6885 -0.0167 0.0000 0.0000 0.0000 0.3064 -20.1193 -0.0544 0.0000 0.0000 0.0000 0.0000 0.0000 0.0000 0.0000 0.0000 0.0000 0.0000 0.0000 0.0000 0.0000 0.0000 0.0000 -80.9951 -11.7569 -13.7489 -84.8542 10.6061 11.5976 0.0000 0.0000 0.0000 0.0000 0.0000 0.0000 71.9392 20.3301 -27.7551 2.0818 2.4173 -98.5327 0.0000 0.0000 0.0000
49.3036 -105.6082 -0.0137 0.0000 0.0000 0.0000 0.3266 -18.7820 -0.0540 0.0000 0.0000 0.0000 0.0000 0.0000 0.0000 0.0000 0.0000 0.0000 0.0000 0.0000 0.0000 0.0000 0.0000 0.0000 -75.4122 -18.8996 -24.3011 -86.7724 -5.0760 -5.3698 0.0000 0.0000 0.0000 0.0000 0.0000 0.0000 71.3901 20.4563 -28.1963 -6.0274 -7.0194 -98.7148 0.0000 0.0000 0.0000
